#!OML:ASF F:\VICON\USERDATA\INSTALL\rory3\rory3.ASF
:FULLY-SPECIFIED
:DEGREES
61
root 0.903306 17.8126 -14.7786 4.90491 -2.87945 -0.207894
lowerback 2.42385 -0.276314 -1.36151
upperback -2.93746 -0.328358 2.63568
thorax -4.37064 -0.0731621 3.51392
lowerneck -15.6023 -4.61525 -10.5587
upperneck 24.9143 -5.2084 5.62542
head 11.0823 -2.70947 3.08063
rclavicle 2.0137e-014 -7.95139e-015
rhumerus -34.1128 -7.80875 -83.1567
rradius 29.1864
rwrist 11.7687
rhand -5.81449 9.05176
rfingers 7.12502
rthumb 20.0107 -19.9379
lclavicle 2.0137e-014 -7.95139e-015
lhumerus -31.4634 7.29925 90.4106
lradius 24.1959
lwrist -13.3649
lhand -13.9076 25.6907
lfingers 7.12502
lthumb 12.2182 55.3138
rfemur -6.54877 6.94719 20.5831
rtibia 18.3259
rfoot -11.0358 -8.2624
rtoes 2.6304
lfemur -6.36653 -5.17884 -19.2099
ltibia 18.6766
lfoot -12.9195 7.85597
ltoes -2.65076
62
root 0.901386 17.8131 -14.7944 4.91027 -2.81131 -0.259173
lowerback 2.65602 -0.342886 -1.39732
upperback -2.99399 -0.414914 2.7267
thorax -4.55511 -0.110123 3.63827
lowerneck -15.2788 -4.48575 -10.6358
upperneck 24.816 -5.03796 5.63328
head 10.9684 -2.64237 3.12443
rclavicle 2.22119e-015 3.02153e-014
rhumerus -34.2615 -7.56823 -83.1772
rradius 29.3373
rwrist 11.6576
rhand -5.28788 8.12499
rfingers 7.12502
rthumb 20.5168 -20.8109
lclavicle 2.22119e-015 3.02153e-014
lhumerus -31.6588 7.47235 90.4365
lradius 24.2969
lwrist -13.2899
lhand -14.2376 25.3196
lfingers 7.12502
lthumb 11.9 54.9614
rfemur -6.62468 6.99036 20.6573
rtibia 18.362
rfoot -10.992 -8.40561
rtoes 2.50612
lfemur -6.48683 -5.11824 -19.1125
ltibia 18.7237
lfoot -12.8423 7.69857
ltoes -2.39562
63
root 0.89993 17.8153 -14.8066 4.98302 -2.86467 -0.310413
lowerback 2.74402 -0.343621 -1.39233
upperback -2.97929 -0.414251 2.76834
thorax -4.58982 -0.108847 3.67988
lowerneck -15.1631 -4.43148 -10.6632
upperneck 24.6877 -4.9681 5.65803
head 10.8925 -2.61015 3.14788
rclavicle -8.96239e-015 1.03368e-014
rhumerus -34.1874 -7.38973 -83.2394
rradius 29.3736
rwrist 11.5984
rhand -4.85952 7.36016
rfingers 7.12502
rthumb 20.9284 -21.5308
lclavicle -8.96239e-015 1.03368e-014
lhumerus -31.638 7.45119 90.4634
lradius 24.3192
lwrist -13.2453
lhand -14.2349 25.1075
lfingers 7.12502
lthumb 11.9026 54.7492
rfemur -6.75522 7.09652 20.6957
rtibia 18.3549
rfoot -10.9463 -8.37271
rtoes 3.00563
lfemur -6.65924 -5.07336 -19.0377
ltibia 18.7907
lfoot -12.8384 7.70816
ltoes -2.46022
64
root 0.900111 17.8163 -14.8136 5.00526 -2.95461 -0.375829
lowerback 2.76992 -0.259407 -1.26829
upperback -2.78227 -0.300534 2.7156
thorax -4.40776 -0.0620789 3.54483
lowerneck -15.5951 -4.55483 -10.5749
upperneck 24.7175 -5.11686 5.65244
head 10.9996 -2.66311 3.10426
rclavicle -1.00014e-015 8.74653e-015
rhumerus -33.8071 -7.56774 -83.3204
rradius 29.3064
rwrist 11.615
rhand -4.93932 7.42647
rfingers 7.12502
rthumb 20.8517 -21.473
lclavicle -1.00014e-015 8.74653e-015
lhumerus -31.2367 7.03768 90.5521
lradius 24.3317
lwrist -13.0708
lhand -13.9732 25.3865
lfingers 7.12502
lthumb 12.1549 55.0134
rfemur -6.82079 7.1786 20.756
rtibia 18.3581
rfoot -10.8328 -8.31934
rtoes 2.98306
lfemur -6.7163 -5.02166 -18.9626
ltibia 18.8245
lfoot -12.946 7.76807
ltoes -2.42333
65
root 0.901651 17.8197 -14.8247 5.00454 -2.92385 -0.34538
lowerback 2.89995 -0.236124 -1.25466
upperback -2.67111 -0.271173 2.69284
thorax -4.36797 -0.0500218 3.51154
lowerneck -15.7206 -4.65103 -10.5918
upperneck 24.7233 -5.22738 5.62687
head 11.0372 -2.7157 3.07954
rclavicle -5.37961e-015 1.66979e-014
rhumerus -33.6106 -7.65198 -83.3144
rradius 29.2849
rwrist 11.6832
rhand -4.97431 7.54215
rfingers 7.12502
rthumb 20.8181 -21.361
lclavicle -5.37961e-015 1.66979e-014
lhumerus -30.9935 6.91389 90.6184
lradius 24.3533
lwrist -13.1223
lhand -13.7885 25.8815
lfingers 7.12502
lthumb 12.333 55.4978
rfemur -6.88249 7.10226 20.7122
rtibia 18.3873
rfoot -10.8313 -8.25277
rtoes 2.9078
lfemur -6.75106 -4.97363 -18.982
ltibia 18.8119
lfoot -13.0011 7.64812
ltoes -2.23973
66
root 0.90359 17.8216 -14.8381 4.96844 -2.85529 -0.23628
lowerback 3.08614 -0.253073 -1.31716
upperback -2.62583 -0.298775 2.66253
thorax -4.42458 -0.0619942 3.51867
lowerneck -15.5758 -4.62572 -10.6353
upperneck 24.6085 -5.20036 5.66102
head 10.9657 -2.70411 3.10364
rclavicle -9.0944e-015 -3.97569e-015
rhumerus -33.5252 -7.5967 -83.3426
rradius 29.2767
rwrist 11.855
rhand -5.02794 7.5429
rfingers 7.12502
rthumb 20.7666 -21.3659
lclavicle -9.0944e-015 -3.97569e-015
lhumerus -31.0339 6.92853 90.6414
lradius 24.5553
lwrist -13.1438
lhand -13.5199 26.4408
lfingers 7.12502
lthumb 12.592 56.0413
rfemur -6.91775 7.04876 20.5748
rtibia 18.4246
rfoot -10.8781 -8.23475
rtoes 3.34249
lfemur -6.75272 -4.93461 -19.0938
ltibia 18.7951
lfoot -12.9929 7.47549
ltoes -2.51431
67
root 0.90409 17.8244 -14.8534 5.00928 -2.85837 -0.255723
lowerback 3.16292 -0.201901 -1.18268
upperback -2.50098 -0.228522 2.57845
thorax -4.34331 -0.0350521 3.3495
lowerneck -15.7978 -4.64381 -10.5575
upperneck 24.6289 -5.2431 5.73748
head 11.0198 -2.70336 3.11011
rclavicle -2.13694e-015 1.82882e-014
rhumerus -33.2987 -7.75677 -83.4434
rradius 29.2666
rwrist 11.9364
rhand -5.03856 7.7342
rfingers 7.12502
rthumb 20.7564 -21.1757
lclavicle -2.13694e-015 1.82882e-014
lhumerus -30.9101 6.72744 90.6431
lradius 24.8152
lwrist -12.9802
lhand -13.2571 27.2475
lfingers 7.12502
lthumb 12.8453 56.8323
rfemur -7.06113 7.12832 20.5865
rtibia 18.4773
rfoot -10.8665 -8.30062
rtoes 3.96588
lfemur -6.83128 -5.00079 -19.0513
ltibia 18.7443
lfoot -12.9551 7.48003
ltoes -2.3923
68
root 0.902523 17.8245 -14.8717 5.15593 -2.86578 -0.298623
lowerback 3.19298 -0.157449 -1.07104
upperback -2.46996 -0.166154 2.51638
thorax -4.33229 -0.00890103 3.21744
lowerneck -15.7883 -4.66878 -10.4555
upperneck 24.5985 -5.31742 5.77687
head 11.0109 -2.72246 3.09616
rclavicle 9.79014e-015 1.74931e-014
rhumerus -33.2296 -7.73363 -83.5812
rradius 29.3041
rwrist 11.6226
rhand -5.13559 8.02454
rfingers 7.12502
rthumb 20.6631 -20.8955
lclavicle 9.79014e-015 1.74931e-014
lhumerus -30.8326 6.36641 90.6652
lradius 24.9883
lwrist -12.6812
lhand -13.0847 27.7499
lfingers 7.12502
lthumb 13.0115 57.3241
rfemur -7.33958 7.1624 20.6338
rtibia 18.5632
rfoot -10.8402 -8.38904
rtoes 3.28701
lfemur -7.08162 -5.05324 -18.9642
ltibia 18.6573
lfoot -12.7561 7.57785
ltoes -2.28859
69
root 0.903463 17.8208 -14.8842 5.16538 -2.85192 -0.285551
lowerback 3.3291 -0.162049 -1.07294
upperback -2.44775 -0.172281 2.52096
thorax -4.38611 -0.0113675 3.22474
lowerneck -15.5913 -4.66972 -10.475
upperneck 24.5228 -5.32825 5.76214
head 10.9455 -2.7333 3.09377
rclavicle -7.0817e-015 -1.03368e-014
rhumerus -33.2275 -7.59939 -83.6327
rradius 29.3386
rwrist 11.4262
rhand -4.94688 8.28999
rfingers 7.12502
rthumb 20.8444 -20.6103
lclavicle -7.0817e-015 -1.03368e-014
lhumerus -30.7829 6.37754 90.6657
lradius 24.9378
lwrist -12.6877
lhand -13.1181 27.5064
lfingers 7.12502
lthumb 12.9794 57.0827
rfemur -7.4158 7.02652 20.605
rtibia 18.6155
rfoot -10.7926 -8.29612
rtoes 2.56389
lfemur -7.18443 -5.08928 -18.9822
ltibia 18.5937
lfoot -12.4984 7.66986
ltoes -2.58715
70
root 0.903884 17.8208 -14.8919 5.12861 -2.8405 -0.215265
lowerback 3.43389 -0.15513 -1.15987
upperback -2.38513 -0.168226 2.52608
thorax -4.38065 -0.00727987 3.27921
lowerneck -15.3982 -4.70705 -10.4616
upperneck 24.384 -5.37452 5.66562
head 10.8578 -2.7659 3.04962
rclavicle -3.55328e-015 1.66979e-014
rhumerus -33.2333 -7.42708 -83.641
rradius 29.4652
rwrist 11.349
rhand -4.97249 8.24124
rfingers 7.12502
rthumb 20.8198 -20.6617
lclavicle -3.55328e-015 1.66979e-014
lhumerus -30.7108 6.45074 90.6926
lradius 24.8507
lwrist -12.9818
lhand -13.4063 26.7328
lfingers 7.12502
lthumb 12.7016 56.3265
rfemur -7.38766 6.94259 20.5168
rtibia 18.6314
rfoot -10.7702 -8.1967
rtoes 2.68472
lfemur -7.19414 -4.98086 -19.0732
ltibia 18.5721
lfoot -12.3815 7.56841
ltoes -2.70414
71
root 0.904754 17.8228 -14.899 5.06172 -2.6573 -0.189952
lowerback 3.64219 -0.186495 -1.16226
upperback -2.30964 -0.210566 2.54096
thorax -4.41757 -0.028305 3.30033
lowerneck -15.471 -4.74152 -10.4325
upperneck 24.3987 -5.398 5.57307
head 10.8765 -2.78348 3.00645
rclavicle -1.28465e-014 -2.06736e-014
rhumerus -33.2479 -7.31299 -83.6415
rradius 29.6776
rwrist 11.3178
rhand -5.13838 8.54124
rfingers 7.12502
rthumb 20.6604 -20.3791
lclavicle -1.28465e-014 -2.06736e-014
lhumerus -30.6113 6.37475 90.7813
lradius 24.8384
lwrist -13.1809
lhand -13.5261 26.7416
lfingers 7.12502
lthumb 12.586 56.3424
rfemur -7.32403 6.78368 20.5179
rtibia 18.6442
rfoot -10.8006 -8.26245
rtoes 2.5068
lfemur -7.12623 -5.03811 -19.0871
ltibia 18.5436
lfoot -12.333 7.43806
ltoes -2.62691
72
root 0.904992 17.8267 -14.9167 5.09816 -2.37439 -0.150074
lowerback 3.80524 -0.25081 -1.17277
upperback -2.18517 -0.298147 2.55727
thorax -4.3747 -0.0731113 3.33005
lowerneck -15.7708 -4.75015 -10.4
upperneck 24.455 -5.37466 5.53
head 10.9516 -2.77017 2.98537
rclavicle -5.29264e-015 7.15625e-015
rhumerus -32.9961 -7.2165 -83.6588
rradius 29.7879
rwrist 11.2349
rhand -5.11703 9.04702
rfingers 7.12502
rthumb 20.681 -19.8711
lclavicle -5.29264e-015 7.15625e-015
lhumerus -30.3277 6.21617 90.8958
lradius 24.7897
lwrist -13.1751
lhand -13.6455 26.6998
lfingers 7.12502
lthumb 12.4709 56.3077
rfemur -7.40142 6.60891 20.4952
rtibia 18.6585
rfoot -10.7732 -8.38748
rtoes 2.1883
lfemur -7.24605 -5.02234 -19.0739
ltibia 18.5394
lfoot -12.3151 7.11282
ltoes -2.65953
73
root 0.9033 17.8326 -14.939 5.32356 -2.26328 -0.0900552
lowerback 3.76646 -0.261592 -1.25464
upperback -2.06602 -0.318264 2.57435
thorax -4.22702 -0.0836732 3.39369
lowerneck -16.1066 -4.71989 -10.3908
upperneck 24.5636 -5.29688 5.52229
head 11.05 -2.73018 2.98981
rclavicle -1.38155e-014 7.15625e-015
rhumerus -32.6342 -7.18515 -83.6679
rradius 29.8161
rwrist 11.1603
rhand -5.07524 9.26585
rfingers 7.12502
rthumb 20.7211 -19.6479
lclavicle -1.38155e-014 7.15625e-015
lhumerus -29.9364 6.07612 91.0094
lradius 24.7192
lwrist -13.1433
lhand -13.7106 26.3377
lfingers 7.12502
lthumb 12.4082 55.9494
rfemur -7.72125 6.4929 20.4077
rtibia 18.6627
rfoot -10.6417 -8.36928
rtoes 2.02573
lfemur -7.6191 -4.90958 -19.0866
ltibia 18.5864
lfoot -12.3252 6.89646
ltoes -2.31007
74
root 0.902587 17.8391 -14.9569 5.50797 -2.26773 0.0496349
lowerback 3.85944 -0.206535 -1.35983
upperback -2.07362 -0.253666 2.49414
thorax -4.29199 -0.0487388 3.36597
lowerneck -16.131 -4.6797 -10.3158
upperneck 24.6309 -5.26463 5.53987
head 11.0745 -2.70655 2.98946
rclavicle -1.02871e-014 2.06736e-014
rhumerus -32.6065 -7.17681 -83.7504
rradius 29.9115
rwrist 11.0533
rhand -5.26898 9.36123
rfingers 7.12502
rthumb 20.535 -19.5727
lclavicle -1.02871e-014 2.06736e-014
lhumerus -29.8538 5.68396 91.093
lradius 24.8483
lwrist -12.8302
lhand -13.4744 26.7196
lfingers 7.12502
lthumb 12.6359 56.3174
rfemur -8.01636 6.45261 20.2214
rtibia 18.685
rfoot -10.5784 -8.31867
rtoes 2.25863
lfemur -7.88859 -4.82108 -19.2146
ltibia 18.6586
lfoot -12.3125 6.74556
ltoes -1.3139
